<svg width="83" height="104" viewBox="0 0 83 104" fill="none" xmlns="http://www.w3.org/2000/svg">
<path d="M83 46.2727V91.7273C83 93.6561 81.6008 95.506 79.1104 96.8699C76.6199 98.2338 73.2421 99 69.72 99H13.28C11.5357 99.0007 9.80821 98.8131 8.19642 98.4479C6.58462 98.0826 5.12013 97.5469 3.8867 96.8715C2.65328 96.196 1.67513 95.394 1.00822 94.5113C0.341298 93.6286 -0.00130597 92.6825 3.74095e-06 91.7273V46.2727C3.74095e-06 44.3439 1.39914 42.494 3.88962 41.1301C6.38011 39.7662 9.75793 39 13.28 39H69.72C72.069 38.9976 74.3767 39.3381 76.4056 39.9864C78.1246 40.5373 79.5977 41.2912 80.7175 42.1932C82.2096 43.3965 83.005 44.8182 83 46.2727Z" fill="#D6D6D4"/>
<path d="M83 46.2849V91.729C83 93.6574 81.6023 95.5068 79.1145 96.8704C76.6266 98.2339 73.2524 99 69.7341 99H13.3539C10.6874 98.9981 8.08357 98.5569 5.88052 97.7335C3.67746 96.9102 1.97701 95.7427 1 94.3829C26.8437 82.7129 55.0918 65.3396 76.4126 40C78.1298 40.5508 79.6013 41.3045 80.7199 42.2063C82.2104 43.4094 83.005 44.8307 83 46.2849Z" fill="#C7C7C5"/>
<path d="M19.5579 48.3124C19.5579 47.3201 18.0472 46.5156 16.1835 46.5156C14.3199 46.5156 12.8091 47.3201 12.8091 48.3124V89.6394C12.8091 90.6317 14.3199 91.4362 16.1835 91.4362C18.0472 91.4362 19.5579 90.6317 19.5579 89.6394V48.3124Z" fill="#BFBFBD"/>
<path d="M36.43 48.3124C36.43 47.3201 34.9192 46.5156 33.0556 46.5156C31.1919 46.5156 29.6812 47.3201 29.6812 48.3124V89.6394C29.6812 90.6317 31.1919 91.4362 33.0556 91.4362C34.9192 91.4362 36.43 90.6317 36.43 89.6394V48.3124Z" fill="#BFBFBD"/>
<path d="M53.3022 48.3124C53.3022 47.3201 51.7914 46.5156 49.9278 46.5156C48.0641 46.5156 46.5533 47.3201 46.5533 48.3124V89.6394C46.5533 90.6317 48.0641 91.4362 49.9278 91.4362C51.7914 91.4362 53.3022 90.6317 53.3022 89.6394V48.3124Z" fill="#BFBFBD"/>
<path d="M70.1743 48.3124C70.1743 47.3201 68.6635 46.5156 66.7998 46.5156C64.9362 46.5156 63.4254 47.3201 63.4254 48.3124V89.6394C63.4254 90.6317 64.9362 91.4362 66.7998 91.4362C68.6635 91.4362 70.1743 90.6317 70.1743 89.6394V48.3124Z" fill="#BFBFBD"/>
<path d="M22.5 104C29.9558 104 36 100.866 36 97C36 93.134 29.9558 90 22.5 90C15.0442 90 9 93.134 9 97C9 100.866 15.0442 104 22.5 104Z" fill="#44546C"/>
<path d="M72.5 102C70.5109 102 68.6032 101.649 67.1967 101.024C65.7902 100.399 65 99.5507 65 98.6667V97H80V98.6667C80 99.5507 79.2098 100.399 77.8033 101.024C76.3968 101.649 74.4891 102 72.5 102Z" fill="#44546C"/>
<path d="M53.1667 0H25.8333C22.0594 0 19 1.567 19 3.5C19 5.433 22.0594 7 25.8333 7H53.1667C56.9406 7 60 5.433 60 3.5C60 1.567 56.9406 0 53.1667 0Z" fill="#E0E0DE"/>
<path d="M27 7H33V39H27V7Z" fill="#C7C7C5"/>
</svg>
