<svg width="97" height="109" viewBox="0 0 97 109" fill="none" xmlns="http://www.w3.org/2000/svg">
<path d="M83.037 31.342V22H67V67H83.037L85.3976 62.6723C87.0409 59.6608 87.4323 56.3186 86.5161 53.122C84.4643 45.9555 83.037 38.6876 83.037 31.342Z" fill="#8F4D2E"/>
<path d="M22.9628 48.9412C20.8735 51.1584 19.5553 53.7746 19.1408 56.5264C18.7264 59.2782 19.2304 62.0684 20.6022 64.6158L22.9628 69H39V45.2941L34.4179 38L22.9628 48.9412Z" fill="#8F4D2E"/>
<path d="M71.5 65.5H57.7V51H39.3V65.5H25.5C22.45 65.5 19.5249 66.4548 17.3683 68.1543C15.2116 69.8539 14 72.159 14 74.5625V109H83V74.5625C83 72.159 81.7884 69.8539 79.6317 68.1543C77.4751 66.4548 74.55 65.5 71.5 65.5Z" fill="#FEC9A3"/>
<path d="M58 58.2962V51H39V58.2962C41.9486 59.4166 45.2016 60 48.5 60C51.7984 60 55.0514 59.4166 58 58.2962Z" fill="#FEB784"/>
<path d="M69 27.3333V39.875C69 44.1516 66.8402 48.2531 62.9957 51.2771C59.1512 54.3011 53.9369 56 48.5 56C43.0631 56 37.8488 54.3011 34.0043 51.2771C30.1598 48.2531 28 44.1516 28 39.875V27.3333C28 23.5319 29.9198 19.8862 33.3372 17.1981C36.7545 14.5101 41.3894 13 46.2222 13H50.7778C53.1712 12.9987 55.5415 13.3686 57.7531 14.0884C59.9646 14.8083 61.9741 15.864 63.6665 17.1952C65.3589 18.5265 66.7011 20.1071 67.6163 21.8467C68.5314 23.5863 69.0016 25.4507 69 27.3333Z" fill="#FEC9A3"/>
<path d="M48.5 48C46.7767 47.9982 45.1245 47.3655 43.9059 46.2407C42.6874 45.1158 42.0019 43.5908 42 42H46.3333C46.3333 42.5304 46.5616 43.0391 46.9679 43.4142C47.3743 43.7893 47.9254 44 48.5 44C49.0746 44 49.6257 43.7893 50.0321 43.4142C50.4384 43.0391 50.6667 42.5304 50.6667 42H55C54.9981 43.5908 54.3127 45.1159 53.0941 46.2407C51.8756 47.3656 50.2233 47.9983 48.5 48Z" fill="#F7A468"/>
<path d="M28 33H64V38H28V33Z" fill="#FEC093"/>
<path d="M78 24.9337V37.6502C77.9978 40.0916 77.3066 42.5017 75.9769 44.7038C74.6472 46.9058 72.7129 48.844 70.3157 50.3763C67.9184 51.9086 65.1191 52.9961 62.1229 53.5591C59.1267 54.122 56.0095 54.1462 53 53.6299C57.3334 52.6669 61.1508 50.6067 63.8701 47.7635C66.5894 44.9203 68.0615 41.4501 68.0619 37.8818V19.7154C68.0678 16.6307 66.9683 13.6083 64.8914 11C68.6782 11.8926 72 13.7312 74.3621 16.242C76.7242 18.7528 78.0002 21.8013 78 24.9337Z" fill="#FEC093"/>
<path d="M46.7273 7C40.6996 7 34.9189 8.92391 30.6567 12.3485C26.3945 15.7731 24 20.4178 24 25.2609V49L31.1991 42.0588C33.8901 39.4642 35.3638 36.1937 35.3636 32.8163C35.3636 30.0238 36.3716 27.2912 38.2655 24.9496C40.1594 22.6081 42.8578 20.7581 46.0338 19.624L55.8182 16.1304L56.5889 17.6785C59.0205 22.5629 63.5984 26.5604 69.4545 28.913H74V25.2609C74 20.4178 71.6055 15.7731 67.3433 12.3485C63.0811 8.92391 57.3004 7 51.2727 7H46.7273Z" fill="#95573A"/>
<path d="M78 28H80.5C82.4891 28 84.3968 28.5268 85.8033 29.4645C87.2098 30.4021 88 31.6739 88 33C88 34.3261 87.2098 35.5979 85.8033 36.5355C84.3968 37.4732 82.4891 38 80.5 38H78V28Z" fill="#FEB784"/>
<path d="M83 109V74.9583C83 72.5824 81.7884 70.3038 79.6317 68.6238C77.4751 66.9438 74.55 66 71.5 66L69.955 67.8056C67.6002 70.557 64.4099 72.8129 60.6671 74.3733C56.9244 75.9336 52.745 76.75 48.5 76.75C44.255 76.75 40.0756 75.9336 36.3329 74.3733C32.5901 72.8129 29.3998 70.557 27.045 67.8056L25.5 66C22.45 66 19.5249 66.9438 17.3683 68.6238C15.2116 70.3038 14 72.5824 14 74.9583V109" fill="#E0E0DE"/>
<path d="M83 74.9583V109H14V74.9583C14 72.5824 15.2116 70.3038 17.3683 68.6238C19.5249 66.9438 22.45 66 25.5 66H34.7L48.5 94.6667L62.3 66H71.5C73.0104 65.9994 74.5062 66.2306 75.9018 66.6806C77.2975 67.1306 78.5655 67.7904 79.6336 68.6224C80.7016 69.4544 81.5487 70.4422 82.1263 71.5294C82.7039 72.6165 83.0008 73.7817 83 74.9583Z" fill="#348FD9"/>
<path d="M83 74.4686V109H33C51.2945 100.41 70.2531 87.8473 81.5329 70C82.4971 71.3627 83.0026 72.9025 83 74.4686Z" fill="#3086CD"/>
<path d="M67 5.76462C65.3728 5.38208 63.6973 5.12586 62 5V15.0902L64.5 14.2587L65.3478 15.8446C65.7479 16.5809 66.2011 17.3004 66.7053 18H67V5.76462Z" fill="#82462A"/>
<path d="M37 96H41V100H37V96Z" fill="#2A71AD"/>
<path d="M82.4596 84L78.5705 85.8709C81.742 90.2452 80.9217 96.0449 76.5291 100.301C76.1875 100.632 76.0002 101.051 76 101.484V107H80.515V102.134C85.6672 96.7363 86.4692 89.5322 82.4596 84Z" fill="#2A71AD"/>
<path d="M38.1439 72.1963L33.8227 70C29.3675 76.4944 30.2586 84.9513 35.9833 91.2876V97H41V90.5245C40.9998 90.0165 40.7917 89.5247 40.4121 89.1355C35.5315 84.1397 34.62 77.3308 38.1439 72.1963Z" fill="#2A71AD"/>
<path d="M55 91H59V107H55V91Z" fill="#2A71AD"/>
<path d="M85.4524 17H11.5476C5.17004 17 0 21.0294 0 26C0 30.9706 5.17004 35 11.5476 35H85.4524C91.83 35 97 30.9706 97 26C97 21.0294 91.83 17 85.4524 17Z" fill="#FFA912"/>
<path d="M74 22.3077V26H24V22.3077C23.9926 17.0304 26.5176 11.9585 31.039 8.16896C35.5604 4.3794 41.7222 2.17061 48.2159 2.01155C48.4773 2.00232 48.7386 2.00001 49 2.00001C52.2841 1.99698 55.5367 2.52018 58.5715 3.53966C61.6063 4.55914 64.3638 6.05488 66.686 7.94122C69.0082 9.82757 70.8495 12.0675 72.1046 14.5327C73.3596 16.9979 74.0037 19.64 74 22.3077Z" fill="#FFB531"/>
<path d="M83 20.3077V24H71.0055C67.4619 11.8685 63.2995 4.80692 57 0.0115383C57.2636 0.00230752 57.5271 0 57.7907 0C61.1012 0 64.3793 0.525274 67.4379 1.54583C70.4964 2.56639 73.2755 4.06224 75.6164 5.94799C77.9573 7.83373 79.8142 10.0724 81.0811 12.5363C82.3479 15.0001 83 17.6408 83 20.3077Z" fill="#FFA912"/>
<path d="M74 22.5V26H24V22.5C23.9997 21.3261 24.1376 20.1547 24.4119 19H73.5881C73.8624 20.1547 74.0003 21.3261 74 22.5Z" fill="#F98500"/>
<path d="M83 20.5V24H69.8204C69.2328 21.3728 68.6343 19.0562 68 17H82.6019C82.867 18.1547 83.0003 19.3261 83 20.5Z" fill="#E67007"/>
</svg>
