<svg width="457" height="109" viewBox="0 0 457 109" fill="none" xmlns="http://www.w3.org/2000/svg">
<path d="M95.8438 21.5391C95.8438 20.4323 95.4531 19.5859 94.6719 19C93.8906 18.401 92.4844 17.776 90.4531 17.125C88.4219 16.4609 86.8138 15.8099 85.6289 15.1719C82.3997 13.4271 80.7852 11.0768 80.7852 8.12109C80.7852 6.58464 81.2148 5.21745 82.0742 4.01953C82.9466 2.80859 84.1901 1.86458 85.8047 1.1875C87.4323 0.510417 89.2552 0.171875 91.2734 0.171875C93.3047 0.171875 95.1146 0.542969 96.7031 1.28516C98.2917 2.01432 99.5221 3.04948 100.395 4.39062C101.28 5.73177 101.723 7.25521 101.723 8.96094H95.8633C95.8633 7.65885 95.4531 6.64974 94.6328 5.93359C93.8125 5.20443 92.6602 4.83984 91.1758 4.83984C89.7435 4.83984 88.6302 5.14583 87.8359 5.75781C87.0417 6.35677 86.6445 7.15104 86.6445 8.14062C86.6445 9.0651 87.1068 9.83984 88.0312 10.4648C88.9688 11.0898 90.3424 11.6758 92.1523 12.2227C95.4857 13.2253 97.9141 14.4688 99.4375 15.9531C100.961 17.4375 101.723 19.2865 101.723 21.5C101.723 23.9609 100.792 25.8945 98.9297 27.3008C97.0677 28.694 94.5612 29.3906 91.4102 29.3906C89.2227 29.3906 87.2305 28.9935 85.4336 28.1992C83.6367 27.3919 82.263 26.2917 81.3125 24.8984C80.375 23.5052 79.9062 21.8906 79.9062 20.0547H85.7852C85.7852 23.1927 87.6602 24.7617 91.4102 24.7617C92.8034 24.7617 93.8906 24.4818 94.6719 23.9219C95.4531 23.349 95.8438 22.5547 95.8438 21.5391ZM113.363 0.5625L120.668 21.1875L127.934 0.5625H135.629V29H129.75V21.2266L130.336 7.80859L122.66 29H118.637L110.98 7.82812L111.566 21.2266V29H105.707V0.5625H113.363ZM157.152 23.1406H146.879L144.926 29H138.695L149.281 0.5625H154.711L165.355 29H159.125L157.152 23.1406ZM148.461 18.3945H155.57L151.996 7.75L148.461 18.3945ZM178.539 18.5898H173.871V29H168.012V0.5625H178.578C181.938 0.5625 184.529 1.3112 186.352 2.80859C188.174 4.30599 189.086 6.42188 189.086 9.15625C189.086 11.0964 188.663 12.7174 187.816 14.0195C186.983 15.3086 185.714 16.3372 184.008 17.1055L190.16 28.7266V29H183.871L178.539 18.5898ZM173.871 13.8438H178.598C180.069 13.8438 181.208 13.4727 182.016 12.7305C182.823 11.9753 183.227 10.9401 183.227 9.625C183.227 8.28385 182.842 7.22917 182.074 6.46094C181.319 5.69271 180.154 5.30859 178.578 5.30859H173.871V13.8438ZM213.988 5.30859H205.277V29H199.418V5.30859H190.824V0.5625H213.988V5.30859ZM246.371 5.30859H237.66V29H231.801V5.30859H223.207V0.5625H246.371V5.30859ZM260.258 18.5898H255.59V29H249.73V0.5625H260.297C263.656 0.5625 266.247 1.3112 268.07 2.80859C269.893 4.30599 270.805 6.42188 270.805 9.15625C270.805 11.0964 270.382 12.7174 269.535 14.0195C268.702 15.3086 267.432 16.3372 265.727 17.1055L271.879 28.7266V29H265.59L260.258 18.5898ZM255.59 13.8438H260.316C261.788 13.8438 262.927 13.4727 263.734 12.7305C264.542 11.9753 264.945 10.9401 264.945 9.625C264.945 8.28385 264.561 7.22917 263.793 6.46094C263.038 5.69271 261.872 5.30859 260.297 5.30859H255.59V13.8438ZM291.332 23.1406H281.059L279.105 29H272.875L283.461 0.5625H288.891L299.535 29H293.305L291.332 23.1406ZM282.641 18.3945H289.75L286.176 7.75L282.641 18.3945ZM311.176 21.9492L317.621 0.5625H324.145L314.242 29H308.129L298.266 0.5625H304.77L311.176 21.9492ZM343.949 16.6758H332.699V24.293H345.902V29H326.84V0.5625H345.863V5.30859H332.699V12.0859H343.949V16.6758ZM355.199 24.293H367.641V29H349.34V0.5625H355.199V24.293ZM145.121 66.5391C145.121 65.4323 144.73 64.5859 143.949 64C143.168 63.401 141.762 62.776 139.73 62.125C137.699 61.4609 136.091 60.8099 134.906 60.1719C131.677 58.4271 130.062 56.0768 130.062 53.1211C130.062 51.5846 130.492 50.2174 131.352 49.0195C132.224 47.8086 133.467 46.8646 135.082 46.1875C136.71 45.5104 138.533 45.1719 140.551 45.1719C142.582 45.1719 144.392 45.543 145.98 46.2852C147.569 47.0143 148.799 48.0495 149.672 49.3906C150.557 50.7318 151 52.2552 151 53.9609H145.141C145.141 52.6589 144.73 51.6497 143.91 50.9336C143.09 50.2044 141.938 49.8398 140.453 49.8398C139.021 49.8398 137.908 50.1458 137.113 50.7578C136.319 51.3568 135.922 52.151 135.922 53.1406C135.922 54.0651 136.384 54.8398 137.309 55.4648C138.246 56.0898 139.62 56.6758 141.43 57.2227C144.763 58.2253 147.191 59.4688 148.715 60.9531C150.238 62.4375 151 64.2865 151 66.5C151 68.9609 150.069 70.8945 148.207 72.3008C146.345 73.694 143.839 74.3906 140.688 74.3906C138.5 74.3906 136.508 73.9935 134.711 73.1992C132.914 72.3919 131.54 71.2917 130.59 69.8984C129.652 68.5052 129.184 66.8906 129.184 65.0547H135.062C135.062 68.1927 136.938 69.7617 140.688 69.7617C142.081 69.7617 143.168 69.4818 143.949 68.9219C144.73 68.349 145.121 67.5547 145.121 66.5391ZM165.512 63.5898H160.844V74H154.984V45.5625H165.551C168.91 45.5625 171.501 46.3112 173.324 47.8086C175.147 49.306 176.059 51.4219 176.059 54.1562C176.059 56.0964 175.635 57.7174 174.789 59.0195C173.956 60.3086 172.686 61.3372 170.98 62.1055L177.133 73.7266V74H170.844L165.512 63.5898ZM160.844 58.8438H165.57C167.042 58.8438 168.181 58.4727 168.988 57.7305C169.796 56.9753 170.199 55.9401 170.199 54.625C170.199 53.2839 169.815 52.2292 169.047 51.4609C168.292 50.6927 167.126 50.3086 165.551 50.3086H160.844V58.8438ZM186.762 74H180.902V45.5625H186.762V74ZM208.031 69.293H220.473V74H202.172V45.5625H208.031V69.293ZM240.297 68.1406H230.023L228.07 74H221.84L232.426 45.5625H237.855L248.5 74H242.27L240.297 68.1406ZM231.605 63.3945H238.715L235.141 52.75L231.605 63.3945ZM274.281 74H268.422L257.016 55.2891V74H251.156V45.5625H257.016L268.441 64.3125V45.5625H274.281V74ZM288.305 62.5938L285.258 65.875V74H279.398V45.5625H285.258V58.4531L287.836 54.918L295.082 45.5625H302.289L292.191 58.1992L302.582 74H295.609L288.305 62.5938ZM320.844 68.1406H310.57L308.617 74H302.387L312.973 45.5625H318.402L329.047 74H322.816L320.844 68.1406ZM312.152 63.3945H319.262L315.688 52.75L312.152 63.3945Z" fill="#00CEC9"/>
<path d="M263.162 98.3086L264.885 89.2031H267.513L264.674 102H262.02L259.937 93.4395L257.854 102H255.199L252.36 89.2031H254.988L256.72 98.291L258.829 89.2031H261.062L263.162 98.3086ZM279.457 95.8916C279.457 97.1514 279.234 98.2559 278.789 99.2051C278.344 100.154 277.705 100.887 276.873 101.402C276.047 101.918 275.098 102.176 274.025 102.176C272.965 102.176 272.019 101.921 271.187 101.411C270.354 100.901 269.71 100.175 269.253 99.2314C268.796 98.2822 268.564 97.1924 268.559 95.9619V95.3291C268.559 94.0693 268.784 92.9619 269.235 92.0068C269.692 91.0459 270.334 90.3105 271.16 89.8008C271.992 89.2852 272.941 89.0273 274.008 89.0273C275.074 89.0273 276.021 89.2852 276.847 89.8008C277.679 90.3105 278.32 91.0459 278.771 92.0068C279.229 92.9619 279.457 94.0664 279.457 95.3203V95.8916ZM276.785 95.3115C276.785 93.9697 276.545 92.9502 276.064 92.2529C275.584 91.5557 274.898 91.207 274.008 91.207C273.123 91.207 272.44 91.5527 271.96 92.2441C271.479 92.9297 271.236 93.9375 271.23 95.2676V95.8916C271.23 97.1982 271.471 98.2119 271.951 98.9326C272.432 99.6533 273.123 100.014 274.025 100.014C274.91 100.014 275.59 99.668 276.064 98.9766C276.539 98.2793 276.779 97.2656 276.785 95.9355V95.3115ZM291.779 102H289.143L284.01 93.5801V102H281.373V89.2031H284.01L289.151 97.6406V89.2031H291.779V102ZM294.082 102V89.2031H298.02C299.145 89.2031 300.149 89.458 301.034 89.9678C301.925 90.4717 302.619 91.1924 303.117 92.1299C303.615 93.0615 303.864 94.1221 303.864 95.3115V95.9004C303.864 97.0898 303.618 98.1475 303.126 99.0732C302.64 99.999 301.951 100.717 301.061 101.227C300.17 101.736 299.165 101.994 298.046 102H294.082ZM296.719 91.3389V99.8818H297.993C299.024 99.8818 299.812 99.5449 300.357 98.8711C300.902 98.1973 301.181 97.2334 301.192 95.9795V95.3027C301.192 94.002 300.923 93.0176 300.384 92.3496C299.845 91.6758 299.057 91.3389 298.02 91.3389H296.719ZM313.488 96.4541H308.426V99.8818H314.367V102H305.789V89.2031H314.35V91.3389H308.426V94.3887H313.488V96.4541ZM320.651 97.3154H318.551V102H315.914V89.2031H320.669C322.181 89.2031 323.347 89.54 324.167 90.2139C324.987 90.8877 325.397 91.8398 325.397 93.0703C325.397 93.9434 325.207 94.6729 324.826 95.2588C324.451 95.8389 323.88 96.3018 323.112 96.6475L325.881 101.877V102H323.051L320.651 97.3154ZM318.551 95.1797H320.678C321.34 95.1797 321.853 95.0127 322.216 94.6787C322.579 94.3389 322.761 93.873 322.761 93.2812C322.761 92.6777 322.588 92.2031 322.242 91.8574C321.902 91.5117 321.378 91.3389 320.669 91.3389H318.551V95.1797ZM342.404 95.8916C342.404 97.1514 342.182 98.2559 341.736 99.2051C341.291 100.154 340.652 100.887 339.82 101.402C338.994 101.918 338.045 102.176 336.973 102.176C335.912 102.176 334.966 101.921 334.134 101.411C333.302 100.901 332.657 100.175 332.2 99.2314C331.743 98.2822 331.512 97.1924 331.506 95.9619V95.3291C331.506 94.0693 331.731 92.9619 332.183 92.0068C332.64 91.0459 333.281 90.3105 334.107 89.8008C334.939 89.2852 335.889 89.0273 336.955 89.0273C338.021 89.0273 338.968 89.2852 339.794 89.8008C340.626 90.3105 341.268 91.0459 341.719 92.0068C342.176 92.9619 342.404 94.0664 342.404 95.3203V95.8916ZM339.732 95.3115C339.732 93.9697 339.492 92.9502 339.012 92.2529C338.531 91.5557 337.846 91.207 336.955 91.207C336.07 91.207 335.388 91.5527 334.907 92.2441C334.427 92.9297 334.184 93.9375 334.178 95.2676V95.8916C334.178 97.1982 334.418 98.2119 334.898 98.9326C335.379 99.6533 336.07 100.014 336.973 100.014C337.857 100.014 338.537 99.668 339.012 98.9766C339.486 98.2793 339.727 97.2656 339.732 95.9355V95.3115ZM352.02 96.7705H346.957V102H344.32V89.2031H352.652V91.3389H346.957V94.6436H352.02V96.7705ZM365.889 99.3633H361.266L360.387 102H357.583L362.347 89.2031H364.79L369.58 102H366.776L365.889 99.3633ZM361.978 97.2275H365.177L363.568 92.4375L361.978 97.2275ZM377.411 98.6426C377.411 98.1445 377.235 97.7637 376.884 97.5C376.532 97.2305 375.899 96.9492 374.985 96.6562C374.071 96.3574 373.348 96.0645 372.814 95.7773C371.361 94.9922 370.635 93.9346 370.635 92.6045C370.635 91.9131 370.828 91.2979 371.215 90.7588C371.607 90.2139 372.167 89.7891 372.894 89.4844C373.626 89.1797 374.446 89.0273 375.354 89.0273C376.269 89.0273 377.083 89.1943 377.798 89.5283C378.513 89.8564 379.066 90.3223 379.459 90.9258C379.857 91.5293 380.057 92.2148 380.057 92.9824H377.42C377.42 92.3965 377.235 91.9424 376.866 91.6201C376.497 91.292 375.979 91.1279 375.311 91.1279C374.666 91.1279 374.165 91.2656 373.808 91.541C373.45 91.8105 373.271 92.168 373.271 92.6133C373.271 93.0293 373.479 93.3779 373.896 93.6592C374.317 93.9404 374.936 94.2041 375.75 94.4502C377.25 94.9014 378.343 95.4609 379.028 96.1289C379.714 96.7969 380.057 97.6289 380.057 98.625C380.057 99.7324 379.638 100.603 378.8 101.235C377.962 101.862 376.834 102.176 375.416 102.176C374.432 102.176 373.535 101.997 372.727 101.64C371.918 101.276 371.3 100.781 370.872 100.154C370.45 99.5273 370.239 98.8008 370.239 97.9746H372.885C372.885 99.3867 373.729 100.093 375.416 100.093C376.043 100.093 376.532 99.9668 376.884 99.7148C377.235 99.457 377.411 99.0996 377.411 98.6426ZM384.653 102H382.017V89.2031H384.653V102ZM394.488 99.3633H389.865L388.986 102H386.183L390.946 89.2031H393.39L398.18 102H395.376L394.488 99.3633ZM390.577 97.2275H393.776L392.168 92.4375L390.577 97.2275ZM399.34 100.752C399.34 100.348 399.475 100.02 399.744 99.7676C400.02 99.5156 400.362 99.3896 400.772 99.3896C401.188 99.3896 401.531 99.5156 401.801 99.7676C402.076 100.02 402.214 100.348 402.214 100.752C402.214 101.15 402.079 101.476 401.81 101.728C401.54 101.974 401.194 102.097 400.772 102.097C400.356 102.097 400.014 101.974 399.744 101.728C399.475 101.476 399.34 101.15 399.34 100.752ZM404.578 100.752C404.578 100.348 404.713 100.02 404.982 99.7676C405.258 99.5156 405.601 99.3896 406.011 99.3896C406.427 99.3896 406.77 99.5156 407.039 99.7676C407.314 100.02 407.452 100.348 407.452 100.752C407.452 101.15 407.317 101.476 407.048 101.728C406.778 101.974 406.433 102.097 406.011 102.097C405.595 102.097 405.252 101.974 404.982 101.728C404.713 101.476 404.578 101.15 404.578 100.752ZM409.816 100.752C409.816 100.348 409.951 100.02 410.221 99.7676C410.496 99.5156 410.839 99.3896 411.249 99.3896C411.665 99.3896 412.008 99.5156 412.277 99.7676C412.553 100.02 412.69 100.348 412.69 100.752C412.69 101.15 412.556 101.476 412.286 101.728C412.017 101.974 411.671 102.097 411.249 102.097C410.833 102.097 410.49 101.974 410.221 101.728C409.951 101.476 409.816 101.15 409.816 100.752Z" fill="#8A9099"/>
</svg>
