<svg width="13" height="14" viewBox="0 0 13 14" fill="none" xmlns="http://www.w3.org/2000/svg">
<g clip-path="url(#clip0)">
<path d="M4.87479 6.70854C3.38145 6.70854 2.1665 5.40025 2.1665 3.79204C2.1665 2.18383 3.38145 0.875427 4.87479 0.875427C6.36812 0.875427 7.58307 2.18383 7.58307 3.79204C7.58307 5.40025 6.36812 6.70854 4.87479 6.70854ZM4.87479 1.7504C3.82944 1.7504 2.97898 2.66617 2.97898 3.79204C2.97898 4.9178 3.82944 5.83357 4.87479 5.83357C5.92013 5.83357 6.77059 4.9178 6.77059 3.79204C6.77059 2.66617 5.92013 1.7504 4.87479 1.7504Z" fill="black"/>
<path d="M9.34346 13.125H0.406237C0.181994 13.125 0 12.929 0 12.6875V10.6459C0 9.11822 1.15425 7.87518 2.5728 7.87518H7.17689C8.59545 7.87518 9.7497 9.11822 9.7497 10.6459V12.6875C9.7497 12.929 9.5677 13.125 9.34346 13.125ZM0.812475 12.25H8.93722V10.6459C8.93722 9.60067 8.14746 8.75016 7.17689 8.75016H2.5728C1.60224 8.75016 0.812475 9.60067 0.812475 10.6459V12.25Z" fill="black"/>
<path d="M12.5934 6.8544H7.98937C7.76512 6.8544 7.58313 6.65841 7.58313 6.41692C7.58313 6.17542 7.76512 5.97943 7.98937 5.97943H12.5934C12.8176 5.97943 12.9996 6.17542 12.9996 6.41692C12.9996 6.65841 12.8176 6.8544 12.5934 6.8544Z" fill="black"/>
<path d="M10.4268 9.18763C10.3227 9.18763 10.2188 9.14502 10.1396 9.05936C9.98096 8.88836 9.98096 8.6113 10.1396 8.4404L12.0192 6.41628L10.1396 4.39216C9.98096 4.22127 9.98096 3.9442 10.1396 3.77331C10.2983 3.60242 10.5556 3.60242 10.7144 3.77331L12.881 6.10654C13.0396 6.27743 13.0396 6.5546 12.881 6.72549L10.7144 9.05872C10.6347 9.14502 10.5307 9.18763 10.4268 9.18763Z" fill="black"/>
</g>
<defs>
<clipPath id="clip0">
<rect width="13" height="14" fill="white"/>
</clipPath>
</defs>
</svg>
